<?xml version="1.0" encoding="utf-8"?>
<!-- Generator: Adobe Illustrator 21.1.0, SVG Export Plug-In . SVG Version: 6.00 Build 0)  -->
<svg version="1.1" id="Camada_1" xmlns="http://www.w3.org/2000/svg" xmlns:xlink="http://www.w3.org/1999/xlink" x="0px" y="0px"
	 viewBox="0 0 246 246" style="enable-background:new 0 0 246 246;" xml:space="preserve">
<g>
	<path d="M184.5,246h-141c-2.5,0-4.5-2-4.5-4.5V25.7C39,11.5,50.5,0,64.7,0h98.7C177.5,0,189,11.5,189,25.7v215.8
		C189,244,187,246,184.5,246z M48.1,236.9H180V25.7c0-9.2-7.5-16.6-16.6-16.6H64.7c-9.2,0-16.6,7.5-16.6,16.6V236.9z"/>
	<path d="M223.4,246H4.7c-2.5,0-4.5-2-4.5-4.5c0-2.5,2-4.5,4.5-4.5h218.7c2.5,0,4.5,2,4.5,4.5C227.9,244,225.9,246,223.4,246z"/>
	<path d="M163.3,105.1H64.7c-2.5,0-4.5-2-4.5-4.5V27.2c0-2.5,2-4.5,4.5-4.5h98.6c2.5,0,4.5,2,4.5,4.5v73.3
		C167.9,103.1,165.8,105.1,163.3,105.1z M69.2,96.1h89.6V31.8H69.2V96.1z"/>
	<path d="M184.5,225.3h-141c-2.5,0-4.5-2-4.5-4.5s2-4.5,4.5-4.5h141c2.5,0,4.5,2,4.5,4.5S187,225.3,184.5,225.3z"/>
	<path d="M117.8,105.1c-1.5,0-3.1-0.8-3.9-2.2L84.3,53c-1.3-2.2-0.6-4.9,1.6-6.2c2.2-1.3,4.9-0.6,6.2,1.6l29.6,49.9
		c1.3,2.2,0.6,4.9-1.6,6.2C119.3,104.9,118.5,105.1,117.8,105.1z"/>
	<path d="M114,201.9c-15.5,0-25.2-10.5-25.2-27.3c0-6.7,3.8-12.7,8.2-19.6c4.7-7.3,9.9-15.6,12.5-27c0.5-2.1,2.3-3.5,4.4-3.5l0,0
		c2.1,0,3.9,1.5,4.4,3.5c2.6,11.4,7.9,19.7,12.5,27c4.4,7,8.2,13,8.2,19.6C139.2,191.4,129.5,201.9,114,201.9z M114,143.2
		c-2.9,6.5-6.3,11.9-9.3,16.6c-3.8,6-6.8,10.7-6.8,14.8c0,15.1,8.8,18.3,16.1,18.3c7.4,0,16.1-3.2,16.1-18.3c0-4-3-8.8-6.8-14.8
		C120.3,155.1,116.9,149.7,114,143.2z"/>
	<path d="M223.7,192.6c-4.2,0-7.6-1.4-10.3-4c-7.4-7.4-6.9-22.7-6.2-40.5c0.6-17.3,1.4-37-6.8-44.1c-3.3-2.9-8.3-3.8-15-2.6
		c-2.5,0.4-4.8-1.2-5.2-3.7c-0.4-2.5,1.2-4.8,3.7-5.2c9.5-1.6,17.1,0,22.5,4.7c11.4,10,10.7,31,9.9,51.3
		c-0.5,13.7-1.1,29.1,3.6,33.7c0.7,0.7,1.9,1.5,4.4,1.4c11.5-0.5,13.3-11.6,12.4-30.5c-0.1-2.9-0.2-5.3-0.1-7.2
		c0.5-7.8-0.8-37.6-1.2-44.8l-19.9-22.8c-1.6-1.9-1.4-4.7,0.4-6.4c1.9-1.6,4.7-1.4,6.4,0.4l21,24c0.7,0.8,1.1,1.7,1.1,2.8
		c0.1,1.5,1.9,38,1.2,47.4c-0.1,1.4,0,3.6,0.1,6.2c0.5,12.6,1.7,38.9-21.1,39.9C224.3,192.6,224,192.6,223.7,192.6z"/>
</g>
</svg>
